Coordinates
version=1
nRows=11
nColumns=42
inDegrees=yes

Units are S.I. units (second, meters, Newtons, ...)
If the header above contains a line with 'inDegrees', this indicates whether rotational values are in degrees (yes) or radians (no).

endheader
time	pelvis_tilt	pelvis_list	pelvis_rotation	pelvis_tx	pelvis_ty	pelvis_tz	hip_flexion_r	hip_adduction_r	hip_rotation_r	knee_angle_r	knee_adduction_r	knee_angle_r_beta	ankle_angle_r	subtalar_angle_r	mtp_angle_r	hip_flexion_l	hip_adduction_l	hip_rotation_l	knee_angle_l	knee_adduction_l	knee_angle_l_beta	ankle_angle_l	subtalar_angle_l	mtp_angle_l	lumbar_extension	lumbar_bending	lumbar_rotation	arm_flex_r	arm_add_r	arm_rot_r	elbow_flex_r	pro_sup_r	wrist_flex_r	wrist_dev_r	arm_flex_l	arm_add_l	arm_rot_l	elbow_flex_l	pro_sup_l	wrist_flex_l	wrist_dev_l
      2.96000000	      4.36734219	      4.68251132	     12.28990904	      0.31151495	      0.87714859	     -0.12513789	      9.15985329	     -6.91776320	    -34.23615664	     31.34736014	     -5.60140001	      0.54711465	     20.75067365	     34.74401134	     -7.50224646	     13.45545192	      1.76708867	      0.16501216	     55.31740988	     -5.29234198	      0.96547094	      4.01749391	    -12.11114237	     -7.50224646	    -27.20806893	      0.79329793	     -5.74399790	      0.98735278	    -12.48157449	    -16.30541807	     48.63619249	     90.00000001	      0.00000000	      0.00000000	     20.16020594	    -12.50853234	     34.81723028	     53.98731460	     90.00000001	      0.00000000	      0.00000000
      2.97000000	      4.51970450	      4.94954783	     11.88886523	      0.31480525	      0.87724672	     -0.12452518	      8.83462309	     -7.08947186	    -34.01786915	     31.47182797	     -5.69943568	      0.54928702	     21.24298600	     35.14605070	     -7.50220223	     13.58331019	      2.30012813	     -0.98521031	     54.31355848	     -6.27780195	      0.94795042	      4.68688923	    -11.68911976	     -7.50220223	    -27.28460117	      0.39618269	     -5.82660204	      1.02284252	    -12.49097157	    -15.94111914	     49.16744239	     90.00000001	      0.00000000	      0.00000000	     20.06548697	    -12.61079483	     34.60155542	     54.10536064	     90.00000001	      0.00000000	      0.00000000
      2.98000000	      4.48849709	      4.84207521	     11.68309565	      0.31773285	      0.87706590	     -0.12391025	      8.74161208	     -6.89598499	    -33.89152986	     31.50921879	     -5.66683322	      0.54993961	     21.24692294	     34.93448157	     -7.50218305	     14.11302776	      2.41330815	     -1.04498112	     53.59822049	     -6.41522516	      0.93546542	      4.81007123	    -11.40355775	     -7.50218305	    -27.14106239	      0.41751405	     -5.78835597	      1.17911200	    -12.53104488	    -15.84577290	     49.36511988	     90.00000001	      0.00000000	      0.00000000	     20.16190335	    -12.61927575	     34.49729605	     54.20302809	     90.00000001	      0.00000000	      0.00000000
      2.99000000	      4.66195464	      4.98266249	     11.35805896	      0.32102434	      0.87704350	     -0.12335451	      8.41190542	     -6.94703746	    -34.02571779	     31.58885458	     -5.89318922	      0.55132952	     21.80021112	     35.81383667	     -7.50201794	     14.33403213	      2.74976145	     -2.39138292	     52.67106938	     -7.55952134	      0.91928358	      6.05435691	     -8.60402762	     -7.50201794	    -27.22900982	      0.18726411	     -5.86405366	      0.84672617	    -12.92621553	    -14.26026329	     50.59092867	     90.00000001	      0.00000000	      0.00000000	     19.97681540	    -12.63990064	     33.99882664	     54.42084996	     90.00000001	      0.00000000	      0.00000000
      3.00000000	      4.64295948	      5.01045786	     11.14548031	      0.32402081	      0.87687455	     -0.12286927	      8.29589529	     -6.86857127	    -33.85031455	     31.63081865	     -5.97575796	      0.55206193	     21.89176298	     35.67516843	     -7.50199267	     14.81347819	      3.04794612	     -2.45394541	     51.97772157	     -7.70600412	      0.90718238	      6.23729941	     -8.43815535	     -7.50199267	    -27.09870283	      0.06738330	     -5.90991844	      0.99493535	    -12.92171111	    -14.11230987	     50.75535764	     90.00000001	      0.00000000	      0.00000000	     19.94945066	    -12.69347466	     33.93110001	     54.41714512	     90.00000001	      0.00000000	      0.00000000
      3.01000000	      4.70615551	      5.05179417	     10.87203855	      0.32704119	      0.87671449	     -0.12244608	      8.10415882	     -6.89495819	    -33.83991065	     31.78566128	     -5.98953007	      0.55476444	     22.34833280	     35.99810800	     -7.50186500	     15.23904526	      3.30006045	     -2.95745931	     51.32050772	     -8.13358894	      0.89571183	      6.73054830	     -7.19444858	     -7.50186500	    -27.09203859	     -0.06012624	     -5.97230949	      0.99185041	    -13.20399247	    -13.11672788	     51.31755697	     90.00000001	      0.00000000	      0.00000000	     19.98087291	    -12.69547543	     33.76332067	     54.35707621	     90.00000001	      0.00000000	      0.00000000
      3.02000000	      4.71309595	      5.00431254	     10.67347269	      0.32994093	      0.87649612	     -0.12199519	      7.97209657	     -6.76015270	    -33.64316515	     31.84423134	     -5.98161659	      0.55578668	     22.31626998	     35.73292882	     -7.50184900	     15.77933437	      3.46517809	     -2.90869015	     50.86178463	     -8.14408636	      0.88770561	      6.80633400	     -7.04268732	     -7.50184900	    -27.02569311	     -0.08594438	     -5.95645102	      1.14761047	    -13.19885148	    -13.04515931	     51.45425193	     90.00000001	      0.00000000	      0.00000000	     20.01284042	    -12.71120810	     33.69224944	     54.40212583	     90.00000001	      0.00000000	      0.00000000
      3.03000000	      4.71801780	      5.00703785	     10.47203398	      0.33291362	      0.87629226	     -0.12163982	      7.83364393	     -6.66984381	    -33.43006152	     31.90058188	     -6.03252724	      0.55677019	     22.36607983	     35.55843497	     -7.50183322	     16.27568342	      3.70584093	     -2.83830144	     50.39096014	     -8.15409804	      0.87948817	      6.90688624	     -6.86688185	     -7.50183322	    -26.94918368	     -0.16252979	     -6.00387823	      1.31299368	    -13.19614905	    -12.94717517	     51.61638867	     90.00000001	      0.00000000	      0.00000000	     19.97904580	    -12.73132745	     33.63884968	     54.40037211	     90.00000001	      0.00000000	      0.00000000
      3.04000000	      4.79746520	      5.13988822	     10.24880719	      0.33597553	      0.87607808	     -0.12135802	      7.63765039	     -6.78251177	    -33.38961661	     32.12153068	     -6.14142159	      0.56062647	     23.17813091	     36.07163891	     -7.50174052	     16.65459941	      4.05344003	     -2.84678057	     49.94820074	     -8.17085138	      0.87176056	      7.32819469	     -5.96038258	     -7.50174052	    -26.95198512	     -0.36950693	     -6.12119304	      1.23422408	    -13.47177179	    -11.75964362	     52.18664226	     90.00000001	      0.00000000	      0.00000000	     19.95435326	    -12.72180173	     33.55301155	     54.04540722	     90.00000001	      0.00000000	      0.00000000
      3.05000000	      4.83773555	      5.11837485	     10.03525573	      0.33895856	      0.87585503	     -0.12102571	      7.46051645	     -6.67720852	    -33.11905969	     32.20031139	     -6.12679289	      0.56200145	     23.12783667	     35.80132910	     -7.50172334	     17.14818168	      4.20644483	     -2.74562744	     49.64526400	     -8.06530284	      0.86647331	      7.35123712	     -5.76816536	     -7.50172334	    -26.91525659	     -0.41045929	     -6.11614413	      1.41779728	    -13.48340329	    -11.66170389	     52.33476381	     90.00000001	      0.00000000	      0.00000000	     19.91558910	    -12.72875159	     33.49022616	     54.06654489	     90.00000001	      0.00000000	      0.00000000
      3.06000000	      4.92309285	      5.20027598	      9.83412043	      0.34199881	      0.87570718	     -0.12076787	      7.21512586	     -6.69155423	    -32.82134405	     32.30471572	     -6.10343440	      0.56382365	     23.45877056	     35.85148567	     -7.50169446	     17.49340503	      4.46719271	     -2.30353571	     49.30339626	     -7.70315844	      0.86050660	      7.44916666	     -5.47494300	     -7.50169446	    -26.95931521	     -0.55554478	     -6.24916765	      1.56566134	    -13.48796894	    -11.28201099	     52.52316446	     90.00000001	      0.00000000	      0.00000000	     19.83317879	    -12.79237425	     33.44319533	     53.88388990	     90.00000001	      0.00000000	      0.00000000
